<svg width="196" height="38" viewBox="0 0 196 38" fill="none" xmlns="http://www.w3.org/2000/svg">
<path d="M120.629 18.7394H123.819V25.202C123.022 25.8274 122.025 26.3486 120.928 26.6613C119.832 26.974 118.735 27.1824 117.638 27.1824C116.043 27.1824 114.648 26.8697 113.352 26.1401C112.056 25.4104 111.059 24.4723 110.361 23.2215C109.663 21.9707 109.265 20.5114 109.265 18.9479C109.265 17.3844 109.663 15.9251 110.361 14.6743C111.059 13.4235 112.056 12.4854 113.352 11.7557C114.648 11.0261 116.043 10.7134 117.638 10.7134C118.934 10.7134 120.23 10.9218 121.327 11.443C122.424 11.9642 123.321 12.5896 124.118 13.5277L121.825 15.7166C120.729 14.4658 119.433 13.9446 117.838 13.9446C116.841 13.9446 116.043 14.1531 115.246 14.5701C114.448 14.987 113.85 15.6124 113.452 16.342C113.053 17.0717 112.853 18.0098 112.853 19.0521C112.853 19.9903 113.053 20.9284 113.452 21.658C113.85 22.3876 114.448 23.0131 115.246 23.43C116.043 23.8469 116.841 24.0554 117.838 24.0554C118.835 24.0554 119.732 23.8469 120.629 23.3258V18.7394Z" fill="white"/>
<path d="M142.561 11.0261V26.9739H139.67L131.994 17.2801V26.9739H128.505V11.0261H131.496L139.072 20.7199V11.0261H142.561Z" fill="white"/>
<path d="M150.636 26.2443C149.34 25.5146 148.343 24.5765 147.645 23.3257C146.947 22.0749 146.548 20.6156 146.548 19.0521C146.548 17.4886 146.947 16.0293 147.645 14.7785C148.343 13.5277 149.34 12.5896 150.636 11.8599C151.932 11.1303 153.327 10.8176 154.922 10.8176C156.517 10.8176 157.913 11.1303 159.209 11.8599C160.505 12.5896 161.502 13.5277 162.199 14.7785C162.897 16.0293 163.296 17.4886 163.296 19.0521C163.296 20.6156 162.897 22.0749 162.199 23.3257C161.502 24.5765 160.505 25.6189 159.209 26.2443C157.913 26.9739 156.517 27.2866 154.922 27.2866C153.327 27.2866 151.932 26.9739 150.636 26.2443ZM157.414 23.4299C158.112 23.013 158.71 22.3876 159.109 21.658C159.508 20.9283 159.707 19.9902 159.707 19.0521C159.707 18.114 159.508 17.1759 159.109 16.4462C158.71 15.7166 158.112 15.0912 157.414 14.6742C156.717 14.2573 155.919 14.0488 154.922 14.0488C154.025 14.0488 153.227 14.2573 152.43 14.6742C151.632 15.0912 151.134 15.7166 150.735 16.4462C150.337 17.1759 150.137 18.114 150.137 19.0521C150.137 19.9902 150.337 20.9283 150.735 21.658C151.134 22.3876 151.732 23.013 152.43 23.4299C153.128 23.8469 153.925 24.0554 154.922 24.0554C155.819 24.1596 156.617 23.9511 157.414 23.4299Z" fill="white"/>
<path d="M168.879 26.7654C167.782 26.4527 166.885 25.9316 166.187 25.4104L167.383 22.5961C168.081 23.1172 168.779 23.5342 169.676 23.8469C170.573 24.1596 171.47 24.2638 172.368 24.2638C173.365 24.2638 174.162 24.1596 174.561 23.8469C175.059 23.5342 175.259 23.1172 175.259 22.5961C175.259 22.1791 175.159 21.8664 174.86 21.658C174.561 21.4495 174.262 21.241 173.763 21.0326C173.365 20.9283 172.766 20.7198 171.969 20.5114C170.773 20.1987 169.875 19.886 169.078 19.6775C168.38 19.3648 167.682 18.9479 167.184 18.3225C166.685 17.697 166.386 16.8632 166.386 15.7166C166.386 14.7785 166.586 13.9446 167.084 13.215C167.583 12.4853 168.28 11.8599 169.277 11.443C170.274 11.026 171.47 10.8176 172.866 10.8176C173.863 10.8176 174.76 10.9218 175.757 11.2345C176.654 11.443 177.551 11.8599 178.249 12.2768L177.153 15.0912C175.757 14.2573 174.361 13.8404 172.966 13.8404C171.969 13.8404 171.271 14.0488 170.773 14.3615C170.274 14.6742 170.075 15.0912 170.075 15.7166C170.075 16.2378 170.374 16.6547 170.872 16.9674C171.371 17.2801 172.268 17.4886 173.365 17.8013C174.561 18.114 175.458 18.4267 176.256 18.6352C176.953 18.9479 177.651 19.3648 178.15 19.9902C178.648 20.6156 178.947 21.4495 178.947 22.4918C178.947 23.4299 178.748 24.2638 178.249 24.9935C177.751 25.7231 177.053 26.3485 176.056 26.7654C175.059 27.1824 173.863 27.3909 172.467 27.3909C171.171 27.2866 169.975 27.0782 168.879 26.7654Z" fill="white"/>
<path d="M185.526 14.0489H180.642V11.0261H194V14.0489H189.115V26.9739H185.526V14.0489Z" fill="white"/>
<path d="M16.3551 18.0098V3.10425C8.67913 3.52119 2.49844 9.98373 2 18.0098H16.3551Z" fill="#5AC8F5"/>
<path d="M32.6042 3H18.249C18.7475 11.0261 24.8285 17.4886 32.5045 17.9055L32.6042 3Z" fill="#FAAF14"/>
<path d="M16.3551 19.9902H2C2.49844 28.0163 8.57944 34.4788 16.2555 34.8958L16.3551 19.9902Z" fill="#0082C8"/>
<path d="M32.6042 19.9902H18.249V35H32.6042V19.9902Z" fill="#EB1946"/>
<path d="M52.7417 14.0489H47.8569V11.0261H61.2152V14.0489H56.3305V26.9739H52.7417V14.0489Z" fill="white"/>
<path d="M76.2677 24.0554V26.9739H64.4048V11.0261H75.9686V13.9446H67.9936V17.4886H75.0714V20.3029H67.9936V24.0554H76.2677Z" fill="white"/>
<path d="M80.5547 11.0261H84.0438V23.9511H91.7198V26.9739H80.5547V11.0261Z" fill="white"/>
<path d="M106.174 24.0554V26.9739H94.4111V11.0261H105.975V13.9446H97.9002V17.4886H104.978V20.3029H97.9002V24.0554H106.174Z" fill="white"/>
</svg>
