<svg width="288" height="48" viewBox="0 0 288 48" fill="none" xmlns="http://www.w3.org/2000/svg">
<g clip-path="url(#clip0_2239_10901)">
<path d="M177.944 23.6093H182.729V33.3031C181.532 34.2412 180.037 35.023 178.392 35.492C176.747 35.9611 175.103 36.2738 173.458 36.2738C171.065 36.2738 168.972 35.8047 167.028 34.7103C165.084 33.6158 163.589 32.2086 162.542 30.3324C161.495 28.4562 160.897 26.2673 160.897 23.922C160.897 21.5767 161.495 19.3878 162.542 17.5116C163.589 15.6353 165.084 14.2282 167.028 13.1337C168.972 12.0392 171.065 11.5702 173.458 11.5702C175.402 11.5702 177.346 11.8829 178.99 12.6647C180.635 13.4464 181.981 14.3845 183.177 15.7917L179.738 19.0751C178.093 17.1989 176.149 16.4171 173.757 16.4171C172.261 16.4171 171.065 16.7298 169.869 17.3552C168.673 17.9806 167.775 18.9187 167.177 20.0132C166.579 21.1076 166.28 22.5148 166.28 24.0783C166.28 25.4855 166.579 26.8927 167.177 27.9871C167.775 29.0816 168.673 30.0197 169.869 30.6451C171.065 31.2705 172.261 31.5832 173.757 31.5832C175.252 31.5832 176.598 31.2705 177.944 30.4888V23.6093Z" fill="white"/>
<path d="M210.841 12.0389V35.9608H206.504L194.99 21.42V35.9608H189.757V12.0389H194.243L205.607 26.5797V12.0389H210.841Z" fill="white"/>
<path d="M222.953 34.8668C221.009 33.7723 219.514 32.3651 218.467 30.4889C217.42 28.6127 216.822 26.4238 216.822 24.0785C216.822 21.7332 217.42 19.5443 218.467 17.6681C219.514 15.7918 221.009 14.3847 222.953 13.2902C224.897 12.1957 226.991 11.7267 229.383 11.7267C231.776 11.7267 233.869 12.1957 235.813 13.2902C237.757 14.3847 239.252 15.7918 240.299 17.6681C241.346 19.5443 241.944 21.7332 241.944 24.0785C241.944 26.4238 241.346 28.6127 240.299 30.4889C239.252 32.3651 237.757 33.9286 235.813 34.8668C233.869 35.9612 231.776 36.4303 229.383 36.4303C226.991 36.4303 224.897 35.9612 222.953 34.8668ZM233.121 30.6453C234.168 30.0198 235.065 29.0817 235.663 27.9873C236.262 26.8928 236.561 25.4856 236.561 24.0785C236.561 22.6713 236.262 21.2641 235.663 20.1697C235.065 19.0752 234.168 18.1371 233.121 17.5117C232.075 16.8863 230.878 16.5736 229.383 16.5736C228.037 16.5736 226.841 16.8863 225.645 17.5117C224.448 18.1371 223.701 19.0752 223.103 20.1697C222.505 21.2641 222.205 22.6713 222.205 24.0785C222.205 25.4856 222.505 26.8928 223.103 27.9873C223.701 29.0817 224.598 30.0198 225.645 30.6453C226.691 31.2707 227.888 31.5834 229.383 31.5834C230.729 31.7397 231.925 31.427 233.121 30.6453Z" fill="white"/>
<path d="M250.318 35.6485C248.673 35.1795 247.327 34.3977 246.28 33.6159L248.075 29.3944C249.121 30.1762 250.168 30.8016 251.514 31.2707C252.86 31.7397 254.206 31.8961 255.551 31.8961C257.047 31.8961 258.243 31.7397 258.841 31.2707C259.589 30.8016 259.888 30.1762 259.888 29.3944C259.888 28.769 259.738 28.3 259.29 27.9873C258.841 27.6746 258.392 27.3619 257.645 27.0492C257.047 26.8928 256.149 26.5801 254.953 26.2674C253.159 25.7983 251.813 25.3293 250.617 25.0166C249.57 24.5475 248.523 23.9221 247.776 22.984C247.028 22.0459 246.579 20.7951 246.579 19.0752C246.579 17.6681 246.878 16.4172 247.626 15.3228C248.374 14.2283 249.42 13.2902 250.916 12.6648C252.411 12.0394 254.206 11.7267 256.299 11.7267C257.794 11.7267 259.14 11.883 260.635 12.3521C261.981 12.6648 263.327 13.2902 264.374 13.9156L262.729 18.1371C260.635 16.8863 258.542 16.2609 256.448 16.2609C254.953 16.2609 253.906 16.5736 253.159 17.0426C252.411 17.5117 252.112 18.1371 252.112 19.0752C252.112 19.857 252.561 20.4824 253.308 20.9514C254.056 21.4205 255.402 21.7332 257.047 22.2023C258.841 22.6713 260.187 23.1404 261.383 23.4531C262.43 23.9221 263.477 24.5475 264.224 25.4856C264.972 26.4238 265.42 27.6746 265.42 29.2381C265.42 30.6453 265.121 31.8961 264.374 32.9905C263.626 34.085 262.579 35.0231 261.084 35.6485C259.589 36.2739 257.794 36.5866 255.701 36.5866C253.757 36.4303 251.963 36.1176 250.318 35.6485Z" fill="white"/>
<path d="M275.289 16.5731H267.962V12.0389H288V16.5731H280.673V35.9608H275.289V16.5731Z" fill="white"/>
<path d="M21.5327 22.5148V0.156494C10.0187 0.781901 0.747664 10.4757 0 22.5148H21.5327Z" fill="#5AC8F5"/>
<path d="M45.9067 0H24.374C25.1217 12.0391 34.2432 21.7329 45.7572 22.3583L45.9067 0Z" fill="#FAAF14"/>
<path d="M21.5327 25.4854H0C0.747664 37.5244 9.86916 47.2182 21.3832 47.8437L21.5327 25.4854Z" fill="#0082C8"/>
<path d="M45.9067 25.4854H24.374V48H45.9067V25.4854Z" fill="#EB1946"/>
<path d="M76.1123 16.5731H68.7852V12.0389H88.8225V16.5731H81.4954V35.9608H76.1123V16.5731Z" fill="white"/>
<path d="M111.402 31.5829V35.9608H93.6074V12.0389H110.953V16.4168H98.9906V21.7327H109.607V25.9542H98.9906V31.5829H111.402Z" fill="white"/>
<path d="M117.832 12.0389H123.065V31.4266H134.579V35.9608H117.832V12.0389Z" fill="white"/>
<path d="M156.262 31.5829V35.9608H138.617V12.0389H155.962V16.4168H143.85V21.7327H154.467V25.9542H143.85V31.5829H156.262Z" fill="white"/>
</g>
<defs>
<clipPath id="clip0_2239_10901">
<rect width="288" height="48" fill="white"/>
</clipPath>
</defs>
</svg>
